<svg width="512" height="512" viewBox="0 0 512 512" fill="none" xmlns="http://www.w3.org/2000/svg" xmlns:xlink="http://www.w3.org/1999/xlink" class=""><rect id="«r9»" width="512" height="512" x="0" y="0" rx="128" fill="url(#«ra»)" stroke="#FFFFFF" stroke-width="0" stroke-opacity="100%" paint-order="stroke"></rect><clipPath id="clip"><use xlink:href="#«r9»"></use></clipPath><defs><radialGradient id="«ra»" cx="50%" cy="50%" r="100%" fx="50%" fy="0%" gradientUnits="objectBoundingBox"><stop stop-color="#4d4d4d"></stop><stop offset="1" stop-color="#000000"></stop></radialGradient><radialGradient id="«rb»" cx="0" cy="0" r="1" gradientUnits="userSpaceOnUse" gradientTransform="translate(256) rotate(90) scale(512)"><stop stop-color="white"></stop><stop offset="1" stop-color="white" stop-opacity="0"></stop></radialGradient></defs><svg xmlns="http://www.w3.org/2000/svg" width="352" height="352" viewBox="0 0 24 24" fill="none" stroke="currentColor" stroke-width="2" stroke-linecap="round" stroke-linejoin="round" class="lucide lucide-book-heart-icon lucide-book-heart" x="80" y="80" alignment-baseline="middle" style="color: rgb(230, 230, 230);"><path d="M16 8.2A2.22 2.22 0 0 0 13.8 6c-.8 0-1.4.3-1.8.9-.4-.6-1-.9-1.8-.9A2.22 2.22 0 0 0 8 8.2c0 .6.3 1.2.7 1.6A226.652 226.652 0 0 0 12 13a404 404 0 0 0 3.3-3.1 2.413 2.413 0 0 0 .7-1.7"></path><path d="M4 19.5v-15A2.5 2.5 0 0 1 6.5 2H19a1 1 0 0 1 1 1v18a1 1 0 0 1-1 1H6.5a1 1 0 0 1 0-5H20"></path></svg></svg>